{"title":"Rugby.Union.Aviva.Premiership.Highlights.R17.2013.03.03.pdtv.x26","uid":8222084,"size":480869103,"categoryP":"video","categoryS":"tv_shows","magnet":"?xt=urn:btih:0e70169f5ed2d5b0aa60f96004050698cc909eb8&amp;dn=Rugby.Union.Aviva.Premiership.Highlights.R17.2013.03.03.pdtv.x26&amp;tr=udp%3A%2F%2Ftracker.openbittorrent.com%3A80&amp;tr=udp%3A%2F%2Fopen.demonii.com%3A1337&amp;tr=udp%3A%2F%2Ftracker.coppersurfer.tk%3A6969&amp;tr=udp%3A%2F%2Fexodus.desync.com%3A6969","seeders":1,"leechers":0,"uploader":null,"files":4,"time":1362500261,"description":"SPORT: Rugby Highlights - Aviva Premiership\nOn: itv1 hd\nDate: Sunday 3rd March 2013 \nTime: 23:15 to 00:15 \n\nCraig Doyle and Martin Bayfield present the best of the action from round 17 of the Aviva Premiership, from Franklin's Gardens, home of Northampton Saints.\n\nGeneral\nComplete name: 2013.03.03.Rugby.Union.Aviva.Highlights.pdtv.x264.mp4\nFormat : MPEG-4\nFormat profile : Base Media\nCodec ID : isom\nFile size: 458 MiB\nDuration : 45mn 37s\nOverall bit rate mode: Variable\nOverall bit rate : 1 404 Kbps\n\nVideo\nID : 1\nFormat : AVC\nFormat/Info: Advanced Video Codec\nFormat profile : &lt;a class=&quot;__cf_email__&quot; href=&quot;/cdn-cgi/l/email-protection&quot; data-cfemail=&quot;7f371618173f334c514e&quot;&gt;[email&amp;#160;protected]&lt;/a&gt;&lt;script cf-hash='f9e31' type=&quot;text/javascript&quot;&gt;\n/* &lt;![CDATA[ */!function(){try{var t=&quot;currentScript&quot;in document?document.currentScript:function(){for(var t=document.getElementsByTagName(&quot;script&quot;),e=t.length;e--;)if(t[e].getAttribute(&quot;cf-hash&quot;))return t[e]}();if(t&amp;&amp;t.previousSibling){var e,r,n,i,c=t.previousSibling,a=c.getAttribute(&quot;data-cfemail&quot;);if(a){for(e=&quot;&quot;,r=parseInt(a.substr(0,2),16),n=2;a.length-n;n+=2)i=parseInt(a.substr(n,2),16)^r,e+=String.fromCharCode(i);e=document.createTextNode(e),c.parentNode.replaceChild(e,c)}}}catch(u){}}();/* ]]&gt; */&lt;/script&gt;\nFormat settings, CABAC : Yes\nFormat settings, ReFrames: 8 frames\nCodec ID : avc1\nCodec ID/Info: Advanced Video Coding\nDuration : 45mn 37s\nBit rate : 1 276 Kbps\nMaximum bit rate : 4 187 Kbps\nWidth: 720 pixels\nHeight : 416 pixels\nDisplay aspect ratio : 1.731\nFrame rate mode: Constant\nFrame rate : 25.000 fps\nColor space: YUV\nChroma subsampling : 4:2:0\nBit depth: 8 bits\nScan type: Progressive\nBits/(Pixel*Frame) : 0.170\nStream size: 416 MiB (91%)\nWriting library: x264 core 130 r2273 b3065e6\n\nAudio\nID : 2\nFormat : AAC\nFormat/Info: Advanced Audio Codec\nFormat profile : LC\nCodec ID : 40\nDuration : 45mn 37s\nBit rate mode: Variable\nBit rate : 124 Kbps\nMaximum bit rate : 131 Kbps\nChannel(s) : 2 channels\nChannel positions: Front: L R\nSampling rate: 48.0 KHz\nCompression mode : Lossy\nDelay relative to video: 80ms\nStream size: 40.4 MiB (9%)\nLanguage : English","torrent":{"xt":"urn:btih:0e70169f5ed2d5b0aa60f96004050698cc909eb8","amp;dn":"Rugby.Union.Aviva.Premiership.Highlights.R17.2013.03.03.pdtv.x26","amp;tr":["udp%3A%2F%2Ftracker.openbittorrent.com%3A80","udp%3A%2F%2Fopen.demonii.com%3A1337","udp%3A%2F%2Ftracker.coppersurfer.tk%3A6969","udp%3A%2F%2Fexodus.desync.com%3A6969"],"infoHash":"0e70169f5ed2d5b0aa60f96004050698cc909eb8","infoHashBuffer":{"type":"Buffer","data":[14,112,22,159,94,210,213,176,170,96,249,96,4,5,6,152,204,144,158,184]},"announce":[],"urlList":[]}}